<?xml version="1.0" encoding="UTF-8"?>
<svg width="508px" height="125px" viewBox="0 0 508 125" version="1.1" xmlns="http://www.w3.org/2000/svg" xmlns:xlink="http://www.w3.org/1999/xlink">
    <!-- Generator: Sketch 51.3 (57544) - http://www.bohemiancoding.com/sketch -->
    <title>LOGO_SKAEL_transparent-bg</title>
    <desc>Created with Sketch.</desc>
    <defs></defs>
    <g id="Page-1" stroke="none" stroke-width="1" fill="none" fill-rule="evenodd">
        <g id="LOGO_SKAEL_transparent-bg" fill-rule="nonzero">
            <polyline id="Fill-5" fill="#FFFFFF" points="285.12297 4 260.876029 4 208 122 232.078782 122 273.0005 28.7803507 313.751057 122 338 122 285.12297 4"></polyline>
            <polyline id="Fill-6" fill="#FFFFFF" points="447.389132 101.435044 447.389132 4 425.165314 4 425.165314 25.5769711 360 25.5769711 360 52.7170212 425.165314 52.7170212 425.165314 73.4513141 360 73.4513141 360 100.086358 425.165314 100.086358 425.165314 122 508 122 508 101.435044 447.389132 101.435044"></polyline>
            <polyline id="Fill-7" fill="#FFFFFF" points="129.368293 61.1458073 181.631037 4.67434297 181.631037 4 154.070812 4 101 61.1167495 158.608581 122 186 122 186 120.651314 129.368293 61.1458073"></polyline>
            <path d="M51.6583924,104.904275 C37.3547918,104.904275 23.7263139,99.11405 18.5093653,86 L0,95.7077374 C8.7485907,117.506113 27.2589562,125 51.3213312,125 C60.5500091,125 69.3976177,123.582812 77,120.599631 L77,94.3097827 C73.0002728,101.850235 62.6033824,104.904275 51.6583924,104.904275" id="Fill-8" fill="#FFFFFF"></path>
            <path d="M53.2695239,49.975307 C39.0914297,48.2872843 26.9397807,45.4170435 26.9397807,35.117295 C26.9397807,26.3379713 34.8730128,19.4162754 51.4136211,19.4162754 C62.2260105,19.4162754 71.8215296,23.9785531 77,29.4560964 L77,4.70177547 C68.930334,1.27153672 59.756155,0 50.7384738,0 C28.9652227,0.16759797 5,10.1301434 5,34.4418852 C5,60.9504652 27.2788591,67.3663565 51.4136211,70.2365972 C63.528152,71.539245 73.2039264,74.5680514 77,81 L77,54.9801638 C69.8432375,52.4380939 61.655195,51.0099986 53.2695239,49.975307" id="Fill-9" fill="#27B3B6"></path>
        </g>
    </g>
</svg>